<?xml version="1.0" encoding="UTF-8"?>
<svg version="1.1" xmlns="http://www.w3.org/2000/svg" width="256" height="256">
<path d="M0 0 C84.48 0 168.96 0 256 0 C256 84.48 256 168.96 256 256 C171.52 256 87.04 256 0 256 C0 171.52 0 87.04 0 0 Z " fill="#FEA28F" transform="translate(0,0)"/>
<path d="M0 0 C84.48 0 168.96 0 256 0 C256 84.48 256 168.96 256 256 C171.52 256 87.04 256 0 256 C0 171.52 0 87.04 0 0 Z M38.3125 51.8125 C25.63909515 66.36175178 16.97794091 84.17805854 13 103 C12.77570312 103.98355469 12.55140625 104.96710938 12.3203125 105.98046875 C6.51457573 136.08281625 13.08105962 167.60223137 30 193 C46.08653272 215.79862913 67.66857518 232.57606317 94.4375 240.6875 C95.10531494 240.89036621 95.77312988 241.09323242 96.46118164 241.30224609 C126.36607214 249.89160516 157.91569947 245.3797568 185.05859375 230.8671875 C193.90817718 225.92271859 201.53737887 219.82496058 209 213 C209.81082031 212.27167969 210.62164062 211.54335937 211.45703125 210.79296875 C232.04670328 191.35718377 244.26479826 162.60351048 245.21484375 134.50390625 C245.94347843 101.08582672 236.35369167 72.2231888 213.39453125 47.46484375 C190.70047542 24.10440456 162.48636029 11.33281468 129.8762207 10.69726562 C92.97560889 10.56323998 63.35564401 25.33955711 38.3125 51.8125 Z " fill="#FEFEFE" transform="translate(0,0)"/>
<path d="M0 0 C7.26 0 14.52 0 22 0 C21.99887207 2.1339624 21.99774414 4.2679248 21.99658203 6.46655273 C21.99721158 13.54343566 22.0307907 20.61989194 22.0802784 27.69659328 C22.10926282 31.98431753 22.1273932 36.27149797 22.12011719 40.55932617 C22.11349519 44.7029821 22.13616982 48.84556617 22.17855453 52.98900032 C22.1896351 54.56406904 22.19043169 56.13924714 22.18042374 57.71432304 C22.13524493 65.87546507 22.16902065 72.63672028 27.32516479 79.42054749 C32.06657496 83.891932 37.27848052 83.47350549 43.50390625 83.3828125 C48.2686361 82.86108789 51.63699303 81.43077537 55 78 C58.03105118 73.85940467 58.38845917 70.81642839 58.43237305 65.73120117 C58.44766052 64.66209 58.44766052 64.66209 58.46325684 63.57138062 C58.49331787 61.22849598 58.50264188 58.88602067 58.51171875 56.54296875 C58.52857061 54.91342314 58.54672154 53.28389049 58.56611633 51.65437317 C58.61356763 47.37517344 58.64340836 43.09602626 58.66955566 38.81665039 C58.69938585 34.44602075 58.74590772 30.07557207 58.79101562 25.70507812 C58.87699346 17.13679272 58.94281963 8.56852603 59 0 C65.93 0 72.86 0 80 0 C80.15899073 9.66733552 80.28704937 19.33378403 80.3626852 29.00213814 C80.39901131 33.49297297 80.44817525 37.98285684 80.52807617 42.47314453 C80.6048845 46.81748486 80.64614476 51.16091847 80.6641407 55.50588608 C80.67694245 57.15236538 80.70193708 58.79880256 80.7401104 60.44488907 C81.01037629 72.59728698 79.44189029 82.61137101 71.12937927 92.14553833 C67.58843362 95.4965092 63.57322553 97.3370089 59 99 C58.19820312 99.35191406 57.39640625 99.70382813 56.5703125 100.06640625 C51.20736129 101.46875345 45.95507169 101.2478534 40.4375 101.1875 C39.31408203 101.18685547 38.19066406 101.18621094 37.03320312 101.18554688 C32.20446795 101.15972476 27.72384928 101.08009098 23 100 C23 99.34 23 98.68 23 98 C22.175 97.95875 21.35 97.9175 20.5 97.875 C13.60783492 96.15195873 9.32140181 91.97578439 5.5625 86.0625 C3.2718175 81.9591365 2.20340303 78.6782698 2 74 C1.34 74 0.68 74 0 74 C0 49.58 0 25.16 0 0 Z " fill="#FEFBFB" transform="translate(67,84)"/>
<path d="M0 0 C6.93 0 13.86 0 21 0 C21 32.67 21 65.34 21 99 C14.07 99 7.14 99 0 99 C0 66.33 0 33.66 0 0 Z " fill="#FEFCF9" transform="translate(167,84)"/>
<path d="M0 0 C0.33 0.66 0.66 1.32 1 2 C0.01059275 3.97582535 -1.06965234 5.90639688 -2.1875 7.8125 C-5.39651003 13.4348125 -7.39756826 18.9144469 -8.98046875 25.22265625 C-10.12256608 28.33388691 -11.51424299 29.85391165 -14 32 C-13.50633215 25.78313197 -11.4192955 21.00162107 -8.6875 15.4375 C-8.1006543 14.2009668 -8.1006543 14.2009668 -7.50195312 12.93945312 C-5.2982532 8.36759806 -2.93360513 4.14195507 0 0 Z " fill="#F088C5" transform="translate(30,63)"/>
<path d="M0 0 C1 3 1 3 0.28735352 4.80932617 C-0.09493408 5.46392822 -0.47722168 6.11853027 -0.87109375 6.79296875 C-1.48500977 7.8612793 -1.48500977 7.8612793 -2.11132812 8.95117188 C-2.54896484 9.68916016 -2.98660156 10.42714844 -3.4375 11.1875 C-3.87126953 11.93708984 -4.30503906 12.68667969 -4.75195312 13.45898438 C-5.82557231 15.31127243 -6.91162681 17.1563425 -8 19 C-8.33 18.34 -8.66 17.68 -9 17 C-8.07836462 14.96270075 -7.05794332 12.96996343 -6 11 C-5.30943071 9.60568261 -4.62200022 8.20980684 -3.9375 6.8125 C-2.74062362 4.37548666 -1.51847658 2.27771487 0 0 Z " fill="#F8DA82" transform="translate(234,174)"/>
<path d="M0 0 C0.33 0 0.66 0 1 0 C1.33 3.63 1.66 7.26 2 11 C-1 8 -1 8 -1.07421875 5.95703125 C-0.71614583 3.97135417 -0.35807292 1.98567708 0 0 Z " fill="#F9E17C" transform="translate(242,103)"/>
</svg>
