<svg width="256" height="256" viewBox="0 0 256 256" fill="none" xmlns="http://www.w3.org/2000/svg">
<rect width="256" height="256" rx="128" fill="white"/>
<path d="M103.608 188.2C112.541 188.2 120.008 184.467 126.008 177C132.141 169.533 135.208 159.667 135.208 147.4V84.2C134.008 81.5333 129.808 80.2 122.608 80.2V76H154.608V80.2C147.408 80.2 143.208 81.5333 142.008 84.2V143.4C142.008 160.733 138.141 173.667 130.408 182.2C122.808 190.733 113.208 195 101.608 195C69.6078 195 53.6078 177.8 53.6078 143.4V84.2C52.4078 81.5333 48.2078 80.2 41.0078 80.2V76H84.6078V80.2C77.4078 80.2 73.2078 81.5333 72.0078 84.2V146.2C72.0078 159.4 74.9411 169.733 80.8078 177.2C86.6745 184.533 94.2745 188.2 103.608 188.2ZM168.041 193V188.8C175.241 188.8 179.441 187.467 180.641 184.8V84.2C179.441 81.5333 175.241 80.2 168.041 80.2V76H211.641V80.2C204.441 80.2 200.241 81.5333 199.041 84.2V184.8C200.241 187.467 204.441 188.8 211.641 188.8V193H168.041Z" fill="black"/>
</svg>
